<?xml version="1.0" encoding="utf-8" standalone="no"?>
<!DOCTYPE svg PUBLIC "-//W3C//DTD SVG 1.1//EN"
  "http://www.w3.org/Graphics/SVG/1.1/DTD/svg11.dtd">
<svg xmlns:xlink="http://www.w3.org/1999/xlink" width="576pt" height="432pt" viewBox="0 0 576 432" xmlns="http://www.w3.org/2000/svg" version="1.1">
 <metadata>
  <rdf:RDF xmlns:dc="http://purl.org/dc/elements/1.1/" xmlns:cc="http://creativecommons.org/ns#" xmlns:rdf="http://www.w3.org/1999/02/22-rdf-syntax-ns#">
   <cc:Work>
    <dc:type rdf:resource="http://purl.org/dc/dcmitype/StillImage"/>
    <dc:date>2026-04-16T09:36:52.626991</dc:date>
    <dc:format>image/svg+xml</dc:format>
    <dc:creator>
     <cc:Agent>
      <dc:title>Matplotlib v3.7.5, https://matplotlib.org/</dc:title>
     </cc:Agent>
    </dc:creator>
   </cc:Work>
  </rdf:RDF>
 </metadata>
 <defs>
  <style type="text/css">*{stroke-linejoin: round; stroke-linecap: butt}</style>
 </defs>
 <g id="figure_1">
  <g id="patch_1">
   <path d="M 0 432 
L 576 432 
L 576 0 
L 0 0 
z
" style="fill: #ffffff"/>
  </g>
  <g id="axes_1">
   <g id="patch_2">
    <path d="M 72 384.48 
L 518.4 384.48 
L 518.4 51.84 
L 72 51.84 
z
" style="fill: #ffffff"/>
   </g>
   <g id="PathCollection_1">
    <defs>
     <path id="m3286aa023e" d="M 0 2.236068 
C 0.593012 2.236068 1.161816 2.000462 1.581139 1.581139 
C 2.000462 1.161816 2.236068 0.593012 2.236068 0 
C 2.236068 -0.593012 2.000462 -1.161816 1.581139 -1.581139 
C 1.161816 -2.000462 0.593012 -2.236068 0 -2.236068 
C -0.593012 -2.236068 -1.161816 -2.000462 -1.581139 -1.581139 
C -2.000462 -1.161816 -2.236068 -0.593012 -2.236068 0 
C -2.236068 0.593012 -2.000462 1.161816 -1.581139 1.581139 
C -1.161816 2.000462 -0.593012 2.236068 0 2.236068 
z
" style="stroke: #3b4cc0"/>
    </defs>
    <g clip-path="url(#p3cac6a9693)">
     <use xlink:href="#m3286aa023e" x="202.899749" y="369.36" style="fill: #3b4cc0; stroke: #3b4cc0"/>
     <use xlink:href="#m3286aa023e" x="175.895795" y="331.941377" style="fill: #3b4cc0; stroke: #3b4cc0"/>
     <use xlink:href="#m3286aa023e" x="154.042884" y="298.358376" style="fill: #3b4cc0; stroke: #3b4cc0"/>
     <use xlink:href="#m3286aa023e" x="136.716647" y="269.63383" style="fill: #3b4cc0; stroke: #3b4cc0"/>
     <use xlink:href="#m3286aa023e" x="120.326964" y="243.466365" style="fill: #3b4cc0; stroke: #3b4cc0"/>
     <use xlink:href="#m3286aa023e" x="117.361212" y="223.751268" style="fill: #3b4cc0; stroke: #3b4cc0"/>
     <use xlink:href="#m3286aa023e" x="111.429707" y="205.47666" style="fill: #3b4cc0; stroke: #3b4cc0"/>
     <use xlink:href="#m3286aa023e" x="103.000727" y="191.037675" style="fill: #3b4cc0; stroke: #3b4cc0"/>
     <use xlink:href="#m3286aa023e" x="102.688543" y="178.201126" style="fill: #3b4cc0; stroke: #3b4cc0"/>
     <use xlink:href="#m3286aa023e" x="104.873834" y="167.265342" style="fill: #3b4cc0; stroke: #3b4cc0"/>
     <use xlink:href="#m3286aa023e" x="107.527402" y="158.264416" style="fill: #3b4cc0; stroke: #3b4cc0"/>
     <use xlink:href="#m3286aa023e" x="111.273615" y="151.017648" style="fill: #3b4cc0; stroke: #3b4cc0"/>
     <use xlink:href="#m3286aa023e" x="118.922134" y="144.257577" style="fill: #3b4cc0; stroke: #3b4cc0"/>
     <use xlink:href="#m3286aa023e" x="124.073177" y="139.946338" style="fill: #3b4cc0; stroke: #3b4cc0"/>
     <use xlink:href="#m3286aa023e" x="129.224221" y="136.632361" style="fill: #3b4cc0; stroke: #3b4cc0"/>
     <use xlink:href="#m3286aa023e" x="134.063079" y="133.929526" style="fill: #3b4cc0; stroke: #3b4cc0"/>
     <use xlink:href="#m3286aa023e" x="139.214123" y="131.85829" style="fill: #3b4cc0; stroke: #3b4cc0"/>
     <use xlink:href="#m3286aa023e" x="144.521258" y="130.093904" style="fill: #3b4cc0; stroke: #3b4cc0"/>
     <use xlink:href="#m3286aa023e" x="149.204025" y="128.764222" style="fill: #3b4cc0; stroke: #3b4cc0"/>
     <use xlink:href="#m3286aa023e" x="154.355068" y="127.715818" style="fill: #3b4cc0; stroke: #3b4cc0"/>
     <use xlink:href="#m3286aa023e" x="159.350019" y="126.778222" style="fill: #3b4cc0; stroke: #3b4cc0"/>
     <use xlink:href="#m3286aa023e" x="164.969339" y="125.798007" style="fill: #3b4cc0; stroke: #3b4cc0"/>
     <use xlink:href="#m3286aa023e" x="169.96429" y="124.996788" style="fill: #3b4cc0; stroke: #3b4cc0"/>
     <use xlink:href="#m3286aa023e" x="174.334873" y="125.022359" style="fill: #3b4cc0; stroke: #3b4cc0"/>
     <use xlink:href="#m3286aa023e" x="179.954193" y="123.743819" style="fill: #3b4cc0; stroke: #3b4cc0"/>
     <use xlink:href="#m3286aa023e" x="184.168683" y="122.482325" style="fill: #3b4cc0; stroke: #3b4cc0"/>
     <use xlink:href="#m3286aa023e" x="189.788003" y="121.647012" style="fill: #3b4cc0; stroke: #3b4cc0"/>
     <use xlink:href="#m3286aa023e" x="194.782954" y="120.266188" style="fill: #3b4cc0; stroke: #3b4cc0"/>
     <use xlink:href="#m3286aa023e" x="199.153536" y="118.791605" style="fill: #3b4cc0; stroke: #3b4cc0"/>
     <use xlink:href="#m3286aa023e" x="205.865501" y="116.490231" style="fill: #3b4cc0; stroke: #3b4cc0"/>
     <use xlink:href="#m3286aa023e" x="212.265283" y="114.615038" style="fill: #3b4cc0; stroke: #3b4cc0"/>
     <use xlink:href="#m3286aa023e" x="219.13334" y="111.708489" style="fill: #3b4cc0; stroke: #3b4cc0"/>
     <use xlink:href="#m3286aa023e" x="228.654966" y="108.904224" style="fill: #3b4cc0; stroke: #3b4cc0"/>
     <use xlink:href="#m3286aa023e" x="239.113145" y="105.733443" style="fill: #3b4cc0; stroke: #3b4cc0"/>
     <use xlink:href="#m3286aa023e" x="251.600522" y="103.389452" style="fill: #3b4cc0; stroke: #3b4cc0"/>
     <use xlink:href="#m3286aa023e" x="264.400085" y="101.505735" style="fill: #3b4cc0; stroke: #3b4cc0"/>
     <use xlink:href="#m3286aa023e" x="280.009307" y="100.491426" style="fill: #3b4cc0; stroke: #3b4cc0"/>
     <use xlink:href="#m3286aa023e" x="294.525883" y="100.781229" style="fill: #3b4cc0; stroke: #3b4cc0"/>
     <use xlink:href="#m3286aa023e" x="309.354645" y="101.556877" style="fill: #3b4cc0; stroke: #3b4cc0"/>
     <use xlink:href="#m3286aa023e" x="322.310299" y="103.542876" style="fill: #3b4cc0; stroke: #3b4cc0"/>
     <use xlink:href="#m3286aa023e" x="333.548939" y="105.835726" style="fill: #3b4cc0; stroke: #3b4cc0"/>
     <use xlink:href="#m3286aa023e" x="342.914472" y="107.173932" style="fill: #3b4cc0; stroke: #3b4cc0"/>
     <use xlink:href="#m3286aa023e" x="352.436098" y="109.875914" style="fill: #3b4cc0; stroke: #3b4cc0"/>
     <use xlink:href="#m3286aa023e" x="360.240709" y="112.808034" style="fill: #3b4cc0; stroke: #3b4cc0"/>
     <use xlink:href="#m3286aa023e" x="366.016121" y="115.18612" style="fill: #3b4cc0; stroke: #3b4cc0"/>
     <use xlink:href="#m3286aa023e" x="372.25981" y="116.583991" style="fill: #3b4cc0; stroke: #3b4cc0"/>
     <use xlink:href="#m3286aa023e" x="377.098669" y="117.726154" style="fill: #3b4cc0; stroke: #3b4cc0"/>
     <use xlink:href="#m3286aa023e" x="383.342358" y="118.484755" style="fill: #3b4cc0; stroke: #3b4cc0"/>
     <use xlink:href="#m3286aa023e" x="386.776387" y="118.535896" style="fill: #3b4cc0; stroke: #3b4cc0"/>
     <use xlink:href="#m3286aa023e" x="391.459153" y="118.621132" style="fill: #3b4cc0; stroke: #3b4cc0"/>
     <use xlink:href="#m3286aa023e" x="396.298012" y="117.325545" style="fill: #3b4cc0; stroke: #3b4cc0"/>
     <use xlink:href="#m3286aa023e" x="400.980779" y="116.601038" style="fill: #3b4cc0; stroke: #3b4cc0"/>
     <use xlink:href="#m3286aa023e" x="406.912283" y="114.640609" style="fill: #3b4cc0; stroke: #3b4cc0"/>
     <use xlink:href="#m3286aa023e" x="413.155972" y="112.015339" style="fill: #3b4cc0; stroke: #3b4cc0"/>
     <use xlink:href="#m3286aa023e" x="419.555753" y="109.739537" style="fill: #3b4cc0; stroke: #3b4cc0"/>
     <use xlink:href="#m3286aa023e" x="426.892088" y="106.125529" style="fill: #3b4cc0; stroke: #3b4cc0"/>
     <use xlink:href="#m3286aa023e" x="434.852791" y="102.545615" style="fill: #3b4cc0; stroke: #3b4cc0"/>
     <use xlink:href="#m3286aa023e" x="444.218324" y="97.738302" style="fill: #3b4cc0; stroke: #3b4cc0"/>
     <use xlink:href="#m3286aa023e" x="453.896042" y="93.672543" style="fill: #3b4cc0; stroke: #3b4cc0"/>
     <use xlink:href="#m3286aa023e" x="466.071235" y="88.353814" style="fill: #3b4cc0; stroke: #3b4cc0"/>
     <use xlink:href="#m3286aa023e" x="478.090336" y="82.26796" style="fill: #3b4cc0; stroke: #3b4cc0"/>
    </g>
   </g>
   <g id="PathCollection_2">
    <defs>
     <path id="m8c2fef3aae" d="M -3.535534 3.535534 
L 3.535534 -3.535534 
M -3.535534 -3.535534 
L 3.535534 3.535534 
" style="stroke: #3b4cc0; stroke-width: 1.5"/>
    </defs>
    <g clip-path="url(#p3cac6a9693)">
     <use xlink:href="#m8c2fef3aae" x="194.674535" y="369.308914" style="fill: #3b4cc0; stroke: #3b4cc0; stroke-width: 1.5"/>
     <use xlink:href="#m8c2fef3aae" x="131.29231" y="315.429317" style="fill: #3b4cc0; stroke: #3b4cc0; stroke-width: 1.5"/>
     <use xlink:href="#m8c2fef3aae" x="141.928582" y="267.522527" style="fill: #3b4cc0; stroke: #3b4cc0; stroke-width: 1.5"/>
     <use xlink:href="#m8c2fef3aae" x="109.44553" y="271.103584" style="fill: #3b4cc0; stroke: #3b4cc0; stroke-width: 1.5"/>
     <use xlink:href="#m8c2fef3aae" x="105.6697" y="252.999512" style="fill: #3b4cc0; stroke: #3b4cc0; stroke-width: 1.5"/>
     <use xlink:href="#m8c2fef3aae" x="118.063564" y="222.500665" style="fill: #3b4cc0; stroke: #3b4cc0; stroke-width: 1.5"/>
     <use xlink:href="#m8c2fef3aae" x="118.723635" y="199.538337" style="fill: #3b4cc0; stroke: #3b4cc0; stroke-width: 1.5"/>
     <use xlink:href="#m8c2fef3aae" x="137.882351" y="196.006984" style="fill: #3b4cc0; stroke: #3b4cc0; stroke-width: 1.5"/>
     <use xlink:href="#m8c2fef3aae" x="92.290909" y="177.320713" style="fill: #3b4cc0; stroke: #3b4cc0; stroke-width: 1.5"/>
     <use xlink:href="#m8c2fef3aae" x="119.836843" y="185.04653" style="fill: #3b4cc0; stroke: #3b4cc0; stroke-width: 1.5"/>
     <use xlink:href="#m8c2fef3aae" x="113.454656" y="171.305038" style="fill: #3b4cc0; stroke: #3b4cc0; stroke-width: 1.5"/>
     <use xlink:href="#m8c2fef3aae" x="136.577029" y="161.24741" style="fill: #3b4cc0; stroke: #3b4cc0; stroke-width: 1.5"/>
     <use xlink:href="#m8c2fef3aae" x="130.385709" y="152.489173" style="fill: #3b4cc0; stroke: #3b4cc0; stroke-width: 1.5"/>
     <use xlink:href="#m8c2fef3aae" x="103.748379" y="125.747708" style="fill: #3b4cc0; stroke: #3b4cc0; stroke-width: 1.5"/>
     <use xlink:href="#m8c2fef3aae" x="94.042677" y="144.024488" style="fill: #3b4cc0; stroke: #3b4cc0; stroke-width: 1.5"/>
     <use xlink:href="#m8c2fef3aae" x="140.496507" y="138.176924" style="fill: #3b4cc0; stroke: #3b4cc0; stroke-width: 1.5"/>
     <use xlink:href="#m8c2fef3aae" x="128.151081" y="138.790772" style="fill: #3b4cc0; stroke: #3b4cc0; stroke-width: 1.5"/>
     <use xlink:href="#m8c2fef3aae" x="123.730291" y="135.798887" style="fill: #3b4cc0; stroke: #3b4cc0; stroke-width: 1.5"/>
     <use xlink:href="#m8c2fef3aae" x="122.015165" y="134.067311" style="fill: #3b4cc0; stroke: #3b4cc0; stroke-width: 1.5"/>
     <use xlink:href="#m8c2fef3aae" x="157.850269" y="159.738484" style="fill: #3b4cc0; stroke: #3b4cc0; stroke-width: 1.5"/>
     <use xlink:href="#m8c2fef3aae" x="192.470722" y="125.864324" style="fill: #3b4cc0; stroke: #3b4cc0; stroke-width: 1.5"/>
     <use xlink:href="#m8c2fef3aae" x="155.87467" y="137.176534" style="fill: #3b4cc0; stroke: #3b4cc0; stroke-width: 1.5"/>
     <use xlink:href="#m8c2fef3aae" x="183.25047" y="119.2078" style="fill: #3b4cc0; stroke: #3b4cc0; stroke-width: 1.5"/>
     <use xlink:href="#m8c2fef3aae" x="172.010728" y="134.834237" style="fill: #3b4cc0; stroke: #3b4cc0; stroke-width: 1.5"/>
     <use xlink:href="#m8c2fef3aae" x="150.278521" y="135.549049" style="fill: #3b4cc0; stroke: #3b4cc0; stroke-width: 1.5"/>
     <use xlink:href="#m8c2fef3aae" x="201.24181" y="127.106015" style="fill: #3b4cc0; stroke: #3b4cc0; stroke-width: 1.5"/>
     <use xlink:href="#m8c2fef3aae" x="164.039679" y="143.086756" style="fill: #3b4cc0; stroke: #3b4cc0; stroke-width: 1.5"/>
     <use xlink:href="#m8c2fef3aae" x="195.297253" y="108.783153" style="fill: #3b4cc0; stroke: #3b4cc0; stroke-width: 1.5"/>
     <use xlink:href="#m8c2fef3aae" x="190.953377" y="112.403477" style="fill: #3b4cc0; stroke: #3b4cc0; stroke-width: 1.5"/>
     <use xlink:href="#m8c2fef3aae" x="227.625539" y="119.315933" style="fill: #3b4cc0; stroke: #3b4cc0; stroke-width: 1.5"/>
     <use xlink:href="#m8c2fef3aae" x="186.127591" y="126.495745" style="fill: #3b4cc0; stroke: #3b4cc0; stroke-width: 1.5"/>
     <use xlink:href="#m8c2fef3aae" x="228.933266" y="114.165044" style="fill: #3b4cc0; stroke: #3b4cc0; stroke-width: 1.5"/>
     <use xlink:href="#m8c2fef3aae" x="207.176802" y="126.860829" style="fill: #3b4cc0; stroke: #3b4cc0; stroke-width: 1.5"/>
     <use xlink:href="#m8c2fef3aae" x="225.757423" y="96.29167" style="fill: #3b4cc0; stroke: #3b4cc0; stroke-width: 1.5"/>
     <use xlink:href="#m8c2fef3aae" x="154.255043" y="86.711042" style="fill: #3b4cc0; stroke: #3b4cc0; stroke-width: 1.5"/>
     <use xlink:href="#m8c2fef3aae" x="321.799392" y="106.122079" style="fill: #3b4cc0; stroke: #3b4cc0; stroke-width: 1.5"/>
     <use xlink:href="#m8c2fef3aae" x="295.547138" y="99.302003" style="fill: #3b4cc0; stroke: #3b4cc0; stroke-width: 1.5"/>
     <use xlink:href="#m8c2fef3aae" x="272.320837" y="109.359355" style="fill: #3b4cc0; stroke: #3b4cc0; stroke-width: 1.5"/>
     <use xlink:href="#m8c2fef3aae" x="275.99395" y="101.113018" style="fill: #3b4cc0; stroke: #3b4cc0; stroke-width: 1.5"/>
     <use xlink:href="#m8c2fef3aae" x="307.30051" y="97.920152" style="fill: #3b4cc0; stroke: #3b4cc0; stroke-width: 1.5"/>
     <use xlink:href="#m8c2fef3aae" x="355.640988" y="104.574678" style="fill: #3b4cc0; stroke: #3b4cc0; stroke-width: 1.5"/>
     <use xlink:href="#m8c2fef3aae" x="283.750558" y="107.666524" style="fill: #3b4cc0; stroke: #3b4cc0; stroke-width: 1.5"/>
     <use xlink:href="#m8c2fef3aae" x="347.945355" y="104.593677" style="fill: #3b4cc0; stroke: #3b4cc0; stroke-width: 1.5"/>
     <use xlink:href="#m8c2fef3aae" x="417.045937" y="109.249444" style="fill: #3b4cc0; stroke: #3b4cc0; stroke-width: 1.5"/>
     <use xlink:href="#m8c2fef3aae" x="329.331442" y="108.056306" style="fill: #3b4cc0; stroke: #3b4cc0; stroke-width: 1.5"/>
     <use xlink:href="#m8c2fef3aae" x="374.884598" y="131.858672" style="fill: #3b4cc0; stroke: #3b4cc0; stroke-width: 1.5"/>
     <use xlink:href="#m8c2fef3aae" x="449.557479" y="121.210381" style="fill: #3b4cc0; stroke: #3b4cc0; stroke-width: 1.5"/>
     <use xlink:href="#m8c2fef3aae" x="404.325313" y="159.389279" style="fill: #3b4cc0; stroke: #3b4cc0; stroke-width: 1.5"/>
     <use xlink:href="#m8c2fef3aae" x="390.977696" y="121.463734" style="fill: #3b4cc0; stroke: #3b4cc0; stroke-width: 1.5"/>
     <use xlink:href="#m8c2fef3aae" x="408.480603" y="108.515084" style="fill: #3b4cc0; stroke: #3b4cc0; stroke-width: 1.5"/>
     <use xlink:href="#m8c2fef3aae" x="382.730123" y="166.685746" style="fill: #3b4cc0; stroke: #3b4cc0; stroke-width: 1.5"/>
     <use xlink:href="#m8c2fef3aae" x="445.278402" y="124.299616" style="fill: #3b4cc0; stroke: #3b4cc0; stroke-width: 1.5"/>
     <use xlink:href="#m8c2fef3aae" x="393.1778" y="133.2363" style="fill: #3b4cc0; stroke: #3b4cc0; stroke-width: 1.5"/>
     <use xlink:href="#m8c2fef3aae" x="345.125134" y="123.242511" style="fill: #3b4cc0; stroke: #3b4cc0; stroke-width: 1.5"/>
     <use xlink:href="#m8c2fef3aae" x="405.836403" y="121.667273" style="fill: #3b4cc0; stroke: #3b4cc0; stroke-width: 1.5"/>
     <use xlink:href="#m8c2fef3aae" x="392.615218" y="116.496521" style="fill: #3b4cc0; stroke: #3b4cc0; stroke-width: 1.5"/>
     <use xlink:href="#m8c2fef3aae" x="424.762095" y="80.949681" style="fill: #3b4cc0; stroke: #3b4cc0; stroke-width: 1.5"/>
     <use xlink:href="#m8c2fef3aae" x="434.787981" y="105.043307" style="fill: #3b4cc0; stroke: #3b4cc0; stroke-width: 1.5"/>
     <use xlink:href="#m8c2fef3aae" x="498.109091" y="66.96" style="fill: #3b4cc0; stroke: #3b4cc0; stroke-width: 1.5"/>
     <use xlink:href="#m8c2fef3aae" x="492.207146" y="84.774779" style="fill: #3b4cc0; stroke: #3b4cc0; stroke-width: 1.5"/>
     <use xlink:href="#m8c2fef3aae" x="488.163625" y="67.106987" style="fill: #3b4cc0; stroke: #3b4cc0; stroke-width: 1.5"/>
    </g>
   </g>
   <g id="matplotlib.axis_1">
    <g id="xtick_1">
     <g id="line2d_1">
      <path d="M 111.273615 384.48 
L 111.273615 51.84 
" clip-path="url(#p3cac6a9693)" style="fill: none; stroke: #b0b0b0; stroke-width: 0.8; stroke-linecap: square"/>
     </g>
     <g id="line2d_2">
      <defs>
       <path id="m785d17b412" d="M 0 0 
L 0 3.5 
" style="stroke: #000000; stroke-width: 0.8"/>
      </defs>
      <g>
       <use xlink:href="#m785d17b412" x="111.273615" y="384.48" style="stroke: #000000; stroke-width: 0.8"/>
      </g>
     </g>
     <g id="text_1">
      <!-- 0.025 -->
      <g transform="translate(96.959553 399.078438) scale(0.1 -0.1)">
       <defs>
        <path id="DejaVuSans-30" d="M 2034 4250 
Q 1547 4250 1301 3770 
Q 1056 3291 1056 2328 
Q 1056 1369 1301 889 
Q 1547 409 2034 409 
Q 2525 409 2770 889 
Q 3016 1369 3016 2328 
Q 3016 3291 2770 3770 
Q 2525 4250 2034 4250 
z
M 2034 4750 
Q 2819 4750 3233 4129 
Q 3647 3509 3647 2328 
Q 3647 1150 3233 529 
Q 2819 -91 2034 -91 
Q 1250 -91 836 529 
Q 422 1150 422 2328 
Q 422 3509 836 4129 
Q 1250 4750 2034 4750 
z
" transform="scale(0.015625)"/>
        <path id="DejaVuSans-2e" d="M 684 794 
L 1344 794 
L 1344 0 
L 684 0 
L 684 794 
z
" transform="scale(0.015625)"/>
        <path id="DejaVuSans-32" d="M 1228 531 
L 3431 531 
L 3431 0 
L 469 0 
L 469 531 
Q 828 903 1448 1529 
Q 2069 2156 2228 2338 
Q 2531 2678 2651 2914 
Q 2772 3150 2772 3378 
Q 2772 3750 2511 3984 
Q 2250 4219 1831 4219 
Q 1534 4219 1204 4116 
Q 875 4013 500 3803 
L 500 4441 
Q 881 4594 1212 4672 
Q 1544 4750 1819 4750 
Q 2544 4750 2975 4387 
Q 3406 4025 3406 3419 
Q 3406 3131 3298 2873 
Q 3191 2616 2906 2266 
Q 2828 2175 2409 1742 
Q 1991 1309 1228 531 
z
" transform="scale(0.015625)"/>
        <path id="DejaVuSans-35" d="M 691 4666 
L 3169 4666 
L 3169 4134 
L 1269 4134 
L 1269 2991 
Q 1406 3038 1543 3061 
Q 1681 3084 1819 3084 
Q 2600 3084 3056 2656 
Q 3513 2228 3513 1497 
Q 3513 744 3044 326 
Q 2575 -91 1722 -91 
Q 1428 -91 1123 -41 
Q 819 9 494 109 
L 494 744 
Q 775 591 1075 516 
Q 1375 441 1709 441 
Q 2250 441 2565 725 
Q 2881 1009 2881 1497 
Q 2881 1984 2565 2268 
Q 2250 2553 1709 2553 
Q 1456 2553 1204 2497 
Q 953 2441 691 2322 
L 691 4666 
z
" transform="scale(0.015625)"/>
       </defs>
       <use xlink:href="#DejaVuSans-30"/>
       <use xlink:href="#DejaVuSans-2e" x="63.623047"/>
       <use xlink:href="#DejaVuSans-30" x="95.410156"/>
       <use xlink:href="#DejaVuSans-32" x="159.033203"/>
       <use xlink:href="#DejaVuSans-35" x="222.65625"/>
      </g>
     </g>
    </g>
    <g id="xtick_2">
     <g id="line2d_3">
      <path d="M 189.319726 384.48 
L 189.319726 51.84 
" clip-path="url(#p3cac6a9693)" style="fill: none; stroke: #b0b0b0; stroke-width: 0.8; stroke-linecap: square"/>
     </g>
     <g id="line2d_4">
      <g>
       <use xlink:href="#m785d17b412" x="189.319726" y="384.48" style="stroke: #000000; stroke-width: 0.8"/>
      </g>
     </g>
     <g id="text_2">
      <!-- 0.030 -->
      <g transform="translate(175.005663 399.078438) scale(0.1 -0.1)">
       <defs>
        <path id="DejaVuSans-33" d="M 2597 2516 
Q 3050 2419 3304 2112 
Q 3559 1806 3559 1356 
Q 3559 666 3084 287 
Q 2609 -91 1734 -91 
Q 1441 -91 1130 -33 
Q 819 25 488 141 
L 488 750 
Q 750 597 1062 519 
Q 1375 441 1716 441 
Q 2309 441 2620 675 
Q 2931 909 2931 1356 
Q 2931 1769 2642 2001 
Q 2353 2234 1838 2234 
L 1294 2234 
L 1294 2753 
L 1863 2753 
Q 2328 2753 2575 2939 
Q 2822 3125 2822 3475 
Q 2822 3834 2567 4026 
Q 2313 4219 1838 4219 
Q 1578 4219 1281 4162 
Q 984 4106 628 3988 
L 628 4550 
Q 988 4650 1302 4700 
Q 1616 4750 1894 4750 
Q 2613 4750 3031 4423 
Q 3450 4097 3450 3541 
Q 3450 3153 3228 2886 
Q 3006 2619 2597 2516 
z
" transform="scale(0.015625)"/>
       </defs>
       <use xlink:href="#DejaVuSans-30"/>
       <use xlink:href="#DejaVuSans-2e" x="63.623047"/>
       <use xlink:href="#DejaVuSans-30" x="95.410156"/>
       <use xlink:href="#DejaVuSans-33" x="159.033203"/>
       <use xlink:href="#DejaVuSans-30" x="222.65625"/>
      </g>
     </g>
    </g>
    <g id="xtick_3">
     <g id="line2d_5">
      <path d="M 267.365837 384.48 
L 267.365837 51.84 
" clip-path="url(#p3cac6a9693)" style="fill: none; stroke: #b0b0b0; stroke-width: 0.8; stroke-linecap: square"/>
     </g>
     <g id="line2d_6">
      <g>
       <use xlink:href="#m785d17b412" x="267.365837" y="384.48" style="stroke: #000000; stroke-width: 0.8"/>
      </g>
     </g>
     <g id="text_3">
      <!-- 0.035 -->
      <g transform="translate(253.051774 399.078438) scale(0.1 -0.1)">
       <use xlink:href="#DejaVuSans-30"/>
       <use xlink:href="#DejaVuSans-2e" x="63.623047"/>
       <use xlink:href="#DejaVuSans-30" x="95.410156"/>
       <use xlink:href="#DejaVuSans-33" x="159.033203"/>
       <use xlink:href="#DejaVuSans-35" x="222.65625"/>
      </g>
     </g>
    </g>
    <g id="xtick_4">
     <g id="line2d_7">
      <path d="M 345.411948 384.48 
L 345.411948 51.84 
" clip-path="url(#p3cac6a9693)" style="fill: none; stroke: #b0b0b0; stroke-width: 0.8; stroke-linecap: square"/>
     </g>
     <g id="line2d_8">
      <g>
       <use xlink:href="#m785d17b412" x="345.411948" y="384.48" style="stroke: #000000; stroke-width: 0.8"/>
      </g>
     </g>
     <g id="text_4">
      <!-- 0.040 -->
      <g transform="translate(331.097885 399.078438) scale(0.1 -0.1)">
       <defs>
        <path id="DejaVuSans-34" d="M 2419 4116 
L 825 1625 
L 2419 1625 
L 2419 4116 
z
M 2253 4666 
L 3047 4666 
L 3047 1625 
L 3713 1625 
L 3713 1100 
L 3047 1100 
L 3047 0 
L 2419 0 
L 2419 1100 
L 313 1100 
L 313 1709 
L 2253 4666 
z
" transform="scale(0.015625)"/>
       </defs>
       <use xlink:href="#DejaVuSans-30"/>
       <use xlink:href="#DejaVuSans-2e" x="63.623047"/>
       <use xlink:href="#DejaVuSans-30" x="95.410156"/>
       <use xlink:href="#DejaVuSans-34" x="159.033203"/>
       <use xlink:href="#DejaVuSans-30" x="222.65625"/>
      </g>
     </g>
    </g>
    <g id="xtick_5">
     <g id="line2d_9">
      <path d="M 423.458059 384.48 
L 423.458059 51.84 
" clip-path="url(#p3cac6a9693)" style="fill: none; stroke: #b0b0b0; stroke-width: 0.8; stroke-linecap: square"/>
     </g>
     <g id="line2d_10">
      <g>
       <use xlink:href="#m785d17b412" x="423.458059" y="384.48" style="stroke: #000000; stroke-width: 0.8"/>
      </g>
     </g>
     <g id="text_5">
      <!-- 0.045 -->
      <g transform="translate(409.143996 399.078438) scale(0.1 -0.1)">
       <use xlink:href="#DejaVuSans-30"/>
       <use xlink:href="#DejaVuSans-2e" x="63.623047"/>
       <use xlink:href="#DejaVuSans-30" x="95.410156"/>
       <use xlink:href="#DejaVuSans-34" x="159.033203"/>
       <use xlink:href="#DejaVuSans-35" x="222.65625"/>
      </g>
     </g>
    </g>
    <g id="xtick_6">
     <g id="line2d_11">
      <path d="M 501.50417 384.48 
L 501.50417 51.84 
" clip-path="url(#p3cac6a9693)" style="fill: none; stroke: #b0b0b0; stroke-width: 0.8; stroke-linecap: square"/>
     </g>
     <g id="line2d_12">
      <g>
       <use xlink:href="#m785d17b412" x="501.50417" y="384.48" style="stroke: #000000; stroke-width: 0.8"/>
      </g>
     </g>
     <g id="text_6">
      <!-- 0.050 -->
      <g transform="translate(487.190107 399.078438) scale(0.1 -0.1)">
       <use xlink:href="#DejaVuSans-30"/>
       <use xlink:href="#DejaVuSans-2e" x="63.623047"/>
       <use xlink:href="#DejaVuSans-30" x="95.410156"/>
       <use xlink:href="#DejaVuSans-35" x="159.033203"/>
       <use xlink:href="#DejaVuSans-30" x="222.65625"/>
      </g>
     </g>
    </g>
    <g id="text_7">
     <!-- Z' (Ohm) -->
     <g transform="translate(272.935156 412.756563) scale(0.1 -0.1)">
      <defs>
       <path id="DejaVuSans-5a" d="M 359 4666 
L 4025 4666 
L 4025 4184 
L 1075 531 
L 4097 531 
L 4097 0 
L 288 0 
L 288 481 
L 3238 4134 
L 359 4134 
L 359 4666 
z
" transform="scale(0.015625)"/>
       <path id="DejaVuSans-27" d="M 1147 4666 
L 1147 2931 
L 616 2931 
L 616 4666 
L 1147 4666 
z
" transform="scale(0.015625)"/>
       <path id="DejaVuSans-20" transform="scale(0.015625)"/>
       <path id="DejaVuSans-28" d="M 1984 4856 
Q 1566 4138 1362 3434 
Q 1159 2731 1159 2009 
Q 1159 1288 1364 580 
Q 1569 -128 1984 -844 
L 1484 -844 
Q 1016 -109 783 600 
Q 550 1309 550 2009 
Q 550 2706 781 3412 
Q 1013 4119 1484 4856 
L 1984 4856 
z
" transform="scale(0.015625)"/>
       <path id="DejaVuSans-4f" d="M 2522 4238 
Q 1834 4238 1429 3725 
Q 1025 3213 1025 2328 
Q 1025 1447 1429 934 
Q 1834 422 2522 422 
Q 3209 422 3611 934 
Q 4013 1447 4013 2328 
Q 4013 3213 3611 3725 
Q 3209 4238 2522 4238 
z
M 2522 4750 
Q 3503 4750 4090 4092 
Q 4678 3434 4678 2328 
Q 4678 1225 4090 567 
Q 3503 -91 2522 -91 
Q 1538 -91 948 565 
Q 359 1222 359 2328 
Q 359 3434 948 4092 
Q 1538 4750 2522 4750 
z
" transform="scale(0.015625)"/>
       <path id="DejaVuSans-68" d="M 3513 2113 
L 3513 0 
L 2938 0 
L 2938 2094 
Q 2938 2591 2744 2837 
Q 2550 3084 2163 3084 
Q 1697 3084 1428 2787 
Q 1159 2491 1159 1978 
L 1159 0 
L 581 0 
L 581 4863 
L 1159 4863 
L 1159 2956 
Q 1366 3272 1645 3428 
Q 1925 3584 2291 3584 
Q 2894 3584 3203 3211 
Q 3513 2838 3513 2113 
z
" transform="scale(0.015625)"/>
       <path id="DejaVuSans-6d" d="M 3328 2828 
Q 3544 3216 3844 3400 
Q 4144 3584 4550 3584 
Q 5097 3584 5394 3201 
Q 5691 2819 5691 2113 
L 5691 0 
L 5113 0 
L 5113 2094 
Q 5113 2597 4934 2840 
Q 4756 3084 4391 3084 
Q 3944 3084 3684 2787 
Q 3425 2491 3425 1978 
L 3425 0 
L 2847 0 
L 2847 2094 
Q 2847 2600 2669 2842 
Q 2491 3084 2119 3084 
Q 1678 3084 1418 2786 
Q 1159 2488 1159 1978 
L 1159 0 
L 581 0 
L 581 3500 
L 1159 3500 
L 1159 2956 
Q 1356 3278 1631 3431 
Q 1906 3584 2284 3584 
Q 2666 3584 2933 3390 
Q 3200 3197 3328 2828 
z
" transform="scale(0.015625)"/>
       <path id="DejaVuSans-29" d="M 513 4856 
L 1013 4856 
Q 1481 4119 1714 3412 
Q 1947 2706 1947 2009 
Q 1947 1309 1714 600 
Q 1481 -109 1013 -844 
L 513 -844 
Q 928 -128 1133 580 
Q 1338 1288 1338 2009 
Q 1338 2731 1133 3434 
Q 928 4138 513 4856 
z
" transform="scale(0.015625)"/>
      </defs>
      <use xlink:href="#DejaVuSans-5a"/>
      <use xlink:href="#DejaVuSans-27" x="68.505859"/>
      <use xlink:href="#DejaVuSans-20" x="95.996094"/>
      <use xlink:href="#DejaVuSans-28" x="127.783203"/>
      <use xlink:href="#DejaVuSans-4f" x="166.796875"/>
      <use xlink:href="#DejaVuSans-68" x="245.507812"/>
      <use xlink:href="#DejaVuSans-6d" x="308.886719"/>
      <use xlink:href="#DejaVuSans-29" x="406.298828"/>
     </g>
    </g>
   </g>
   <g id="matplotlib.axis_2">
    <g id="ytick_1">
     <g id="line2d_13">
      <path d="M 72 356.404121 
L 518.4 356.404121 
" clip-path="url(#p3cac6a9693)" style="fill: none; stroke: #b0b0b0; stroke-width: 0.8; stroke-linecap: square"/>
     </g>
     <g id="line2d_14">
      <defs>
       <path id="m55ca43c385" d="M 0 0 
L -3.5 0 
" style="stroke: #000000; stroke-width: 0.8"/>
      </defs>
      <g>
       <use xlink:href="#m55ca43c385" x="72" y="356.404121" style="stroke: #000000; stroke-width: 0.8"/>
      </g>
     </g>
     <g id="text_8">
      <!-- −0.025 -->
      <g transform="translate(27.992188 360.20334) scale(0.1 -0.1)">
       <defs>
        <path id="DejaVuSans-2212" d="M 678 2272 
L 4684 2272 
L 4684 1741 
L 678 1741 
L 678 2272 
z
" transform="scale(0.015625)"/>
       </defs>
       <use xlink:href="#DejaVuSans-2212"/>
       <use xlink:href="#DejaVuSans-30" x="83.789062"/>
       <use xlink:href="#DejaVuSans-2e" x="147.412109"/>
       <use xlink:href="#DejaVuSans-30" x="179.199219"/>
       <use xlink:href="#DejaVuSans-32" x="242.822266"/>
       <use xlink:href="#DejaVuSans-35" x="306.445312"/>
      </g>
     </g>
    </g>
    <g id="ytick_2">
     <g id="line2d_15">
      <path d="M 72 313.7861 
L 518.4 313.7861 
" clip-path="url(#p3cac6a9693)" style="fill: none; stroke: #b0b0b0; stroke-width: 0.8; stroke-linecap: square"/>
     </g>
     <g id="line2d_16">
      <g>
       <use xlink:href="#m55ca43c385" x="72" y="313.7861" style="stroke: #000000; stroke-width: 0.8"/>
      </g>
     </g>
     <g id="text_9">
      <!-- −0.020 -->
      <g transform="translate(27.992188 317.585319) scale(0.1 -0.1)">
       <use xlink:href="#DejaVuSans-2212"/>
       <use xlink:href="#DejaVuSans-30" x="83.789062"/>
       <use xlink:href="#DejaVuSans-2e" x="147.412109"/>
       <use xlink:href="#DejaVuSans-30" x="179.199219"/>
       <use xlink:href="#DejaVuSans-32" x="242.822266"/>
       <use xlink:href="#DejaVuSans-30" x="306.445312"/>
      </g>
     </g>
    </g>
    <g id="ytick_3">
     <g id="line2d_17">
      <path d="M 72 271.168079 
L 518.4 271.168079 
" clip-path="url(#p3cac6a9693)" style="fill: none; stroke: #b0b0b0; stroke-width: 0.8; stroke-linecap: square"/>
     </g>
     <g id="line2d_18">
      <g>
       <use xlink:href="#m55ca43c385" x="72" y="271.168079" style="stroke: #000000; stroke-width: 0.8"/>
      </g>
     </g>
     <g id="text_10">
      <!-- −0.015 -->
      <g transform="translate(27.992188 274.967297) scale(0.1 -0.1)">
       <defs>
        <path id="DejaVuSans-31" d="M 794 531 
L 1825 531 
L 1825 4091 
L 703 3866 
L 703 4441 
L 1819 4666 
L 2450 4666 
L 2450 531 
L 3481 531 
L 3481 0 
L 794 0 
L 794 531 
z
" transform="scale(0.015625)"/>
       </defs>
       <use xlink:href="#DejaVuSans-2212"/>
       <use xlink:href="#DejaVuSans-30" x="83.789062"/>
       <use xlink:href="#DejaVuSans-2e" x="147.412109"/>
       <use xlink:href="#DejaVuSans-30" x="179.199219"/>
       <use xlink:href="#DejaVuSans-31" x="242.822266"/>
       <use xlink:href="#DejaVuSans-35" x="306.445312"/>
      </g>
     </g>
    </g>
    <g id="ytick_4">
     <g id="line2d_19">
      <path d="M 72 228.550057 
L 518.4 228.550057 
" clip-path="url(#p3cac6a9693)" style="fill: none; stroke: #b0b0b0; stroke-width: 0.8; stroke-linecap: square"/>
     </g>
     <g id="line2d_20">
      <g>
       <use xlink:href="#m55ca43c385" x="72" y="228.550057" style="stroke: #000000; stroke-width: 0.8"/>
      </g>
     </g>
     <g id="text_11">
      <!-- −0.010 -->
      <g transform="translate(27.992188 232.349276) scale(0.1 -0.1)">
       <use xlink:href="#DejaVuSans-2212"/>
       <use xlink:href="#DejaVuSans-30" x="83.789062"/>
       <use xlink:href="#DejaVuSans-2e" x="147.412109"/>
       <use xlink:href="#DejaVuSans-30" x="179.199219"/>
       <use xlink:href="#DejaVuSans-31" x="242.822266"/>
       <use xlink:href="#DejaVuSans-30" x="306.445312"/>
      </g>
     </g>
    </g>
    <g id="ytick_5">
     <g id="line2d_21">
      <path d="M 72 185.932036 
L 518.4 185.932036 
" clip-path="url(#p3cac6a9693)" style="fill: none; stroke: #b0b0b0; stroke-width: 0.8; stroke-linecap: square"/>
     </g>
     <g id="line2d_22">
      <g>
       <use xlink:href="#m55ca43c385" x="72" y="185.932036" style="stroke: #000000; stroke-width: 0.8"/>
      </g>
     </g>
     <g id="text_12">
      <!-- −0.005 -->
      <g transform="translate(27.992188 189.731254) scale(0.1 -0.1)">
       <use xlink:href="#DejaVuSans-2212"/>
       <use xlink:href="#DejaVuSans-30" x="83.789062"/>
       <use xlink:href="#DejaVuSans-2e" x="147.412109"/>
       <use xlink:href="#DejaVuSans-30" x="179.199219"/>
       <use xlink:href="#DejaVuSans-30" x="242.822266"/>
       <use xlink:href="#DejaVuSans-35" x="306.445312"/>
      </g>
     </g>
    </g>
    <g id="ytick_6">
     <g id="line2d_23">
      <path d="M 72 143.314014 
L 518.4 143.314014 
" clip-path="url(#p3cac6a9693)" style="fill: none; stroke: #b0b0b0; stroke-width: 0.8; stroke-linecap: square"/>
     </g>
     <g id="line2d_24">
      <g>
       <use xlink:href="#m55ca43c385" x="72" y="143.314014" style="stroke: #000000; stroke-width: 0.8"/>
      </g>
     </g>
     <g id="text_13">
      <!-- 0.000 -->
      <g transform="translate(36.371875 147.113233) scale(0.1 -0.1)">
       <use xlink:href="#DejaVuSans-30"/>
       <use xlink:href="#DejaVuSans-2e" x="63.623047"/>
       <use xlink:href="#DejaVuSans-30" x="95.410156"/>
       <use xlink:href="#DejaVuSans-30" x="159.033203"/>
       <use xlink:href="#DejaVuSans-30" x="222.65625"/>
      </g>
     </g>
    </g>
    <g id="ytick_7">
     <g id="line2d_25">
      <path d="M 72 100.695993 
L 518.4 100.695993 
" clip-path="url(#p3cac6a9693)" style="fill: none; stroke: #b0b0b0; stroke-width: 0.8; stroke-linecap: square"/>
     </g>
     <g id="line2d_26">
      <g>
       <use xlink:href="#m55ca43c385" x="72" y="100.695993" style="stroke: #000000; stroke-width: 0.8"/>
      </g>
     </g>
     <g id="text_14">
      <!-- 0.005 -->
      <g transform="translate(36.371875 104.495211) scale(0.1 -0.1)">
       <use xlink:href="#DejaVuSans-30"/>
       <use xlink:href="#DejaVuSans-2e" x="63.623047"/>
       <use xlink:href="#DejaVuSans-30" x="95.410156"/>
       <use xlink:href="#DejaVuSans-30" x="159.033203"/>
       <use xlink:href="#DejaVuSans-35" x="222.65625"/>
      </g>
     </g>
    </g>
    <g id="ytick_8">
     <g id="line2d_27">
      <path d="M 72 58.077971 
L 518.4 58.077971 
" clip-path="url(#p3cac6a9693)" style="fill: none; stroke: #b0b0b0; stroke-width: 0.8; stroke-linecap: square"/>
     </g>
     <g id="line2d_28">
      <g>
       <use xlink:href="#m55ca43c385" x="72" y="58.077971" style="stroke: #000000; stroke-width: 0.8"/>
      </g>
     </g>
     <g id="text_15">
      <!-- 0.010 -->
      <g transform="translate(36.371875 61.87719) scale(0.1 -0.1)">
       <use xlink:href="#DejaVuSans-30"/>
       <use xlink:href="#DejaVuSans-2e" x="63.623047"/>
       <use xlink:href="#DejaVuSans-30" x="95.410156"/>
       <use xlink:href="#DejaVuSans-31" x="159.033203"/>
       <use xlink:href="#DejaVuSans-30" x="222.65625"/>
      </g>
     </g>
    </g>
    <g id="text_16">
     <!-- -Z'' (Ohm) -->
     <g transform="translate(21.9125 243.602969) rotate(-90) scale(0.1 -0.1)">
      <defs>
       <path id="DejaVuSans-2d" d="M 313 2009 
L 1997 2009 
L 1997 1497 
L 313 1497 
L 313 2009 
z
" transform="scale(0.015625)"/>
      </defs>
      <use xlink:href="#DejaVuSans-2d"/>
      <use xlink:href="#DejaVuSans-5a" x="36.083984"/>
      <use xlink:href="#DejaVuSans-27" x="104.589844"/>
      <use xlink:href="#DejaVuSans-27" x="132.080078"/>
      <use xlink:href="#DejaVuSans-20" x="159.570312"/>
      <use xlink:href="#DejaVuSans-28" x="191.357422"/>
      <use xlink:href="#DejaVuSans-4f" x="230.371094"/>
      <use xlink:href="#DejaVuSans-68" x="309.082031"/>
      <use xlink:href="#DejaVuSans-6d" x="372.460938"/>
      <use xlink:href="#DejaVuSans-29" x="469.873047"/>
     </g>
    </g>
   </g>
   <g id="patch_3">
    <path d="M 72 384.48 
L 72 51.84 
" style="fill: none; stroke: #000000; stroke-width: 0.8; stroke-linejoin: miter; stroke-linecap: square"/>
   </g>
   <g id="patch_4">
    <path d="M 518.4 384.48 
L 518.4 51.84 
" style="fill: none; stroke: #000000; stroke-width: 0.8; stroke-linejoin: miter; stroke-linecap: square"/>
   </g>
   <g id="patch_5">
    <path d="M 72 384.48 
L 518.4 384.48 
" style="fill: none; stroke: #000000; stroke-width: 0.8; stroke-linejoin: miter; stroke-linecap: square"/>
   </g>
   <g id="patch_6">
    <path d="M 72 51.84 
L 518.4 51.84 
" style="fill: none; stroke: #000000; stroke-width: 0.8; stroke-linejoin: miter; stroke-linecap: square"/>
   </g>
   <g id="text_17">
    <!-- Comparative Nyquist Scatter - Temp 15°C - sigma=0.05*|Z| -->
    <g transform="translate(116.004375 45.84) scale(0.12 -0.12)">
     <defs>
      <path id="DejaVuSans-43" d="M 4122 4306 
L 4122 3641 
Q 3803 3938 3442 4084 
Q 3081 4231 2675 4231 
Q 1875 4231 1450 3742 
Q 1025 3253 1025 2328 
Q 1025 1406 1450 917 
Q 1875 428 2675 428 
Q 3081 428 3442 575 
Q 3803 722 4122 1019 
L 4122 359 
Q 3791 134 3420 21 
Q 3050 -91 2638 -91 
Q 1578 -91 968 557 
Q 359 1206 359 2328 
Q 359 3453 968 4101 
Q 1578 4750 2638 4750 
Q 3056 4750 3426 4639 
Q 3797 4528 4122 4306 
z
" transform="scale(0.015625)"/>
      <path id="DejaVuSans-6f" d="M 1959 3097 
Q 1497 3097 1228 2736 
Q 959 2375 959 1747 
Q 959 1119 1226 758 
Q 1494 397 1959 397 
Q 2419 397 2687 759 
Q 2956 1122 2956 1747 
Q 2956 2369 2687 2733 
Q 2419 3097 1959 3097 
z
M 1959 3584 
Q 2709 3584 3137 3096 
Q 3566 2609 3566 1747 
Q 3566 888 3137 398 
Q 2709 -91 1959 -91 
Q 1206 -91 779 398 
Q 353 888 353 1747 
Q 353 2609 779 3096 
Q 1206 3584 1959 3584 
z
" transform="scale(0.015625)"/>
      <path id="DejaVuSans-70" d="M 1159 525 
L 1159 -1331 
L 581 -1331 
L 581 3500 
L 1159 3500 
L 1159 2969 
Q 1341 3281 1617 3432 
Q 1894 3584 2278 3584 
Q 2916 3584 3314 3078 
Q 3713 2572 3713 1747 
Q 3713 922 3314 415 
Q 2916 -91 2278 -91 
Q 1894 -91 1617 61 
Q 1341 213 1159 525 
z
M 3116 1747 
Q 3116 2381 2855 2742 
Q 2594 3103 2138 3103 
Q 1681 3103 1420 2742 
Q 1159 2381 1159 1747 
Q 1159 1113 1420 752 
Q 1681 391 2138 391 
Q 2594 391 2855 752 
Q 3116 1113 3116 1747 
z
" transform="scale(0.015625)"/>
      <path id="DejaVuSans-61" d="M 2194 1759 
Q 1497 1759 1228 1600 
Q 959 1441 959 1056 
Q 959 750 1161 570 
Q 1363 391 1709 391 
Q 2188 391 2477 730 
Q 2766 1069 2766 1631 
L 2766 1759 
L 2194 1759 
z
M 3341 1997 
L 3341 0 
L 2766 0 
L 2766 531 
Q 2569 213 2275 61 
Q 1981 -91 1556 -91 
Q 1019 -91 701 211 
Q 384 513 384 1019 
Q 384 1609 779 1909 
Q 1175 2209 1959 2209 
L 2766 2209 
L 2766 2266 
Q 2766 2663 2505 2880 
Q 2244 3097 1772 3097 
Q 1472 3097 1187 3025 
Q 903 2953 641 2809 
L 641 3341 
Q 956 3463 1253 3523 
Q 1550 3584 1831 3584 
Q 2591 3584 2966 3190 
Q 3341 2797 3341 1997 
z
" transform="scale(0.015625)"/>
      <path id="DejaVuSans-72" d="M 2631 2963 
Q 2534 3019 2420 3045 
Q 2306 3072 2169 3072 
Q 1681 3072 1420 2755 
Q 1159 2438 1159 1844 
L 1159 0 
L 581 0 
L 581 3500 
L 1159 3500 
L 1159 2956 
Q 1341 3275 1631 3429 
Q 1922 3584 2338 3584 
Q 2397 3584 2469 3576 
Q 2541 3569 2628 3553 
L 2631 2963 
z
" transform="scale(0.015625)"/>
      <path id="DejaVuSans-74" d="M 1172 4494 
L 1172 3500 
L 2356 3500 
L 2356 3053 
L 1172 3053 
L 1172 1153 
Q 1172 725 1289 603 
Q 1406 481 1766 481 
L 2356 481 
L 2356 0 
L 1766 0 
Q 1100 0 847 248 
Q 594 497 594 1153 
L 594 3053 
L 172 3053 
L 172 3500 
L 594 3500 
L 594 4494 
L 1172 4494 
z
" transform="scale(0.015625)"/>
      <path id="DejaVuSans-69" d="M 603 3500 
L 1178 3500 
L 1178 0 
L 603 0 
L 603 3500 
z
M 603 4863 
L 1178 4863 
L 1178 4134 
L 603 4134 
L 603 4863 
z
" transform="scale(0.015625)"/>
      <path id="DejaVuSans-76" d="M 191 3500 
L 800 3500 
L 1894 563 
L 2988 3500 
L 3597 3500 
L 2284 0 
L 1503 0 
L 191 3500 
z
" transform="scale(0.015625)"/>
      <path id="DejaVuSans-65" d="M 3597 1894 
L 3597 1613 
L 953 1613 
Q 991 1019 1311 708 
Q 1631 397 2203 397 
Q 2534 397 2845 478 
Q 3156 559 3463 722 
L 3463 178 
Q 3153 47 2828 -22 
Q 2503 -91 2169 -91 
Q 1331 -91 842 396 
Q 353 884 353 1716 
Q 353 2575 817 3079 
Q 1281 3584 2069 3584 
Q 2775 3584 3186 3129 
Q 3597 2675 3597 1894 
z
M 3022 2063 
Q 3016 2534 2758 2815 
Q 2500 3097 2075 3097 
Q 1594 3097 1305 2825 
Q 1016 2553 972 2059 
L 3022 2063 
z
" transform="scale(0.015625)"/>
      <path id="DejaVuSans-4e" d="M 628 4666 
L 1478 4666 
L 3547 763 
L 3547 4666 
L 4159 4666 
L 4159 0 
L 3309 0 
L 1241 3903 
L 1241 0 
L 628 0 
L 628 4666 
z
" transform="scale(0.015625)"/>
      <path id="DejaVuSans-79" d="M 2059 -325 
Q 1816 -950 1584 -1140 
Q 1353 -1331 966 -1331 
L 506 -1331 
L 506 -850 
L 844 -850 
Q 1081 -850 1212 -737 
Q 1344 -625 1503 -206 
L 1606 56 
L 191 3500 
L 800 3500 
L 1894 763 
L 2988 3500 
L 3597 3500 
L 2059 -325 
z
" transform="scale(0.015625)"/>
      <path id="DejaVuSans-71" d="M 947 1747 
Q 947 1113 1208 752 
Q 1469 391 1925 391 
Q 2381 391 2643 752 
Q 2906 1113 2906 1747 
Q 2906 2381 2643 2742 
Q 2381 3103 1925 3103 
Q 1469 3103 1208 2742 
Q 947 2381 947 1747 
z
M 2906 525 
Q 2725 213 2448 61 
Q 2172 -91 1784 -91 
Q 1150 -91 751 415 
Q 353 922 353 1747 
Q 353 2572 751 3078 
Q 1150 3584 1784 3584 
Q 2172 3584 2448 3432 
Q 2725 3281 2906 2969 
L 2906 3500 
L 3481 3500 
L 3481 -1331 
L 2906 -1331 
L 2906 525 
z
" transform="scale(0.015625)"/>
      <path id="DejaVuSans-75" d="M 544 1381 
L 544 3500 
L 1119 3500 
L 1119 1403 
Q 1119 906 1312 657 
Q 1506 409 1894 409 
Q 2359 409 2629 706 
Q 2900 1003 2900 1516 
L 2900 3500 
L 3475 3500 
L 3475 0 
L 2900 0 
L 2900 538 
Q 2691 219 2414 64 
Q 2138 -91 1772 -91 
Q 1169 -91 856 284 
Q 544 659 544 1381 
z
M 1991 3584 
L 1991 3584 
z
" transform="scale(0.015625)"/>
      <path id="DejaVuSans-73" d="M 2834 3397 
L 2834 2853 
Q 2591 2978 2328 3040 
Q 2066 3103 1784 3103 
Q 1356 3103 1142 2972 
Q 928 2841 928 2578 
Q 928 2378 1081 2264 
Q 1234 2150 1697 2047 
L 1894 2003 
Q 2506 1872 2764 1633 
Q 3022 1394 3022 966 
Q 3022 478 2636 193 
Q 2250 -91 1575 -91 
Q 1294 -91 989 -36 
Q 684 19 347 128 
L 347 722 
Q 666 556 975 473 
Q 1284 391 1588 391 
Q 1994 391 2212 530 
Q 2431 669 2431 922 
Q 2431 1156 2273 1281 
Q 2116 1406 1581 1522 
L 1381 1569 
Q 847 1681 609 1914 
Q 372 2147 372 2553 
Q 372 3047 722 3315 
Q 1072 3584 1716 3584 
Q 2034 3584 2315 3537 
Q 2597 3491 2834 3397 
z
" transform="scale(0.015625)"/>
      <path id="DejaVuSans-53" d="M 3425 4513 
L 3425 3897 
Q 3066 4069 2747 4153 
Q 2428 4238 2131 4238 
Q 1616 4238 1336 4038 
Q 1056 3838 1056 3469 
Q 1056 3159 1242 3001 
Q 1428 2844 1947 2747 
L 2328 2669 
Q 3034 2534 3370 2195 
Q 3706 1856 3706 1288 
Q 3706 609 3251 259 
Q 2797 -91 1919 -91 
Q 1588 -91 1214 -16 
Q 841 59 441 206 
L 441 856 
Q 825 641 1194 531 
Q 1563 422 1919 422 
Q 2459 422 2753 634 
Q 3047 847 3047 1241 
Q 3047 1584 2836 1778 
Q 2625 1972 2144 2069 
L 1759 2144 
Q 1053 2284 737 2584 
Q 422 2884 422 3419 
Q 422 4038 858 4394 
Q 1294 4750 2059 4750 
Q 2388 4750 2728 4690 
Q 3069 4631 3425 4513 
z
" transform="scale(0.015625)"/>
      <path id="DejaVuSans-63" d="M 3122 3366 
L 3122 2828 
Q 2878 2963 2633 3030 
Q 2388 3097 2138 3097 
Q 1578 3097 1268 2742 
Q 959 2388 959 1747 
Q 959 1106 1268 751 
Q 1578 397 2138 397 
Q 2388 397 2633 464 
Q 2878 531 3122 666 
L 3122 134 
Q 2881 22 2623 -34 
Q 2366 -91 2075 -91 
Q 1284 -91 818 406 
Q 353 903 353 1747 
Q 353 2603 823 3093 
Q 1294 3584 2113 3584 
Q 2378 3584 2631 3529 
Q 2884 3475 3122 3366 
z
" transform="scale(0.015625)"/>
      <path id="DejaVuSans-54" d="M -19 4666 
L 3928 4666 
L 3928 4134 
L 2272 4134 
L 2272 0 
L 1638 0 
L 1638 4134 
L -19 4134 
L -19 4666 
z
" transform="scale(0.015625)"/>
      <path id="DejaVuSans-b0" d="M 1600 4347 
Q 1350 4347 1178 4173 
Q 1006 4000 1006 3750 
Q 1006 3503 1178 3333 
Q 1350 3163 1600 3163 
Q 1850 3163 2022 3333 
Q 2194 3503 2194 3750 
Q 2194 3997 2020 4172 
Q 1847 4347 1600 4347 
z
M 1600 4750 
Q 1800 4750 1984 4673 
Q 2169 4597 2303 4453 
Q 2447 4313 2519 4134 
Q 2591 3956 2591 3750 
Q 2591 3338 2302 3052 
Q 2013 2766 1594 2766 
Q 1172 2766 890 3047 
Q 609 3328 609 3750 
Q 609 4169 896 4459 
Q 1184 4750 1600 4750 
z
" transform="scale(0.015625)"/>
      <path id="DejaVuSans-67" d="M 2906 1791 
Q 2906 2416 2648 2759 
Q 2391 3103 1925 3103 
Q 1463 3103 1205 2759 
Q 947 2416 947 1791 
Q 947 1169 1205 825 
Q 1463 481 1925 481 
Q 2391 481 2648 825 
Q 2906 1169 2906 1791 
z
M 3481 434 
Q 3481 -459 3084 -895 
Q 2688 -1331 1869 -1331 
Q 1566 -1331 1297 -1286 
Q 1028 -1241 775 -1147 
L 775 -588 
Q 1028 -725 1275 -790 
Q 1522 -856 1778 -856 
Q 2344 -856 2625 -561 
Q 2906 -266 2906 331 
L 2906 616 
Q 2728 306 2450 153 
Q 2172 0 1784 0 
Q 1141 0 747 490 
Q 353 981 353 1791 
Q 353 2603 747 3093 
Q 1141 3584 1784 3584 
Q 2172 3584 2450 3431 
Q 2728 3278 2906 2969 
L 2906 3500 
L 3481 3500 
L 3481 434 
z
" transform="scale(0.015625)"/>
      <path id="DejaVuSans-3d" d="M 678 2906 
L 4684 2906 
L 4684 2381 
L 678 2381 
L 678 2906 
z
M 678 1631 
L 4684 1631 
L 4684 1100 
L 678 1100 
L 678 1631 
z
" transform="scale(0.015625)"/>
      <path id="DejaVuSans-2a" d="M 3009 3897 
L 1888 3291 
L 3009 2681 
L 2828 2375 
L 1778 3009 
L 1778 1831 
L 1422 1831 
L 1422 3009 
L 372 2375 
L 191 2681 
L 1313 3291 
L 191 3897 
L 372 4206 
L 1422 3572 
L 1422 4750 
L 1778 4750 
L 1778 3572 
L 2828 4206 
L 3009 3897 
z
" transform="scale(0.015625)"/>
      <path id="DejaVuSans-7c" d="M 1344 4891 
L 1344 -1509 
L 813 -1509 
L 813 4891 
L 1344 4891 
z
" transform="scale(0.015625)"/>
     </defs>
     <use xlink:href="#DejaVuSans-43"/>
     <use xlink:href="#DejaVuSans-6f" x="69.824219"/>
     <use xlink:href="#DejaVuSans-6d" x="131.005859"/>
     <use xlink:href="#DejaVuSans-70" x="228.417969"/>
     <use xlink:href="#DejaVuSans-61" x="291.894531"/>
     <use xlink:href="#DejaVuSans-72" x="353.173828"/>
     <use xlink:href="#DejaVuSans-61" x="394.287109"/>
     <use xlink:href="#DejaVuSans-74" x="455.566406"/>
     <use xlink:href="#DejaVuSans-69" x="494.775391"/>
     <use xlink:href="#DejaVuSans-76" x="522.558594"/>
     <use xlink:href="#DejaVuSans-65" x="581.738281"/>
     <use xlink:href="#DejaVuSans-20" x="643.261719"/>
     <use xlink:href="#DejaVuSans-4e" x="675.048828"/>
     <use xlink:href="#DejaVuSans-79" x="749.853516"/>
     <use xlink:href="#DejaVuSans-71" x="809.033203"/>
     <use xlink:href="#DejaVuSans-75" x="872.509766"/>
     <use xlink:href="#DejaVuSans-69" x="935.888672"/>
     <use xlink:href="#DejaVuSans-73" x="963.671875"/>
     <use xlink:href="#DejaVuSans-74" x="1015.771484"/>
     <use xlink:href="#DejaVuSans-20" x="1054.980469"/>
     <use xlink:href="#DejaVuSans-53" x="1086.767578"/>
     <use xlink:href="#DejaVuSans-63" x="1150.244141"/>
     <use xlink:href="#DejaVuSans-61" x="1205.224609"/>
     <use xlink:href="#DejaVuSans-74" x="1266.503906"/>
     <use xlink:href="#DejaVuSans-74" x="1305.712891"/>
     <use xlink:href="#DejaVuSans-65" x="1344.921875"/>
     <use xlink:href="#DejaVuSans-72" x="1406.445312"/>
     <use xlink:href="#DejaVuSans-20" x="1447.558594"/>
     <use xlink:href="#DejaVuSans-2d" x="1479.345703"/>
     <use xlink:href="#DejaVuSans-20" x="1515.429688"/>
     <use xlink:href="#DejaVuSans-54" x="1547.216797"/>
     <use xlink:href="#DejaVuSans-65" x="1591.300781"/>
     <use xlink:href="#DejaVuSans-6d" x="1652.824219"/>
     <use xlink:href="#DejaVuSans-70" x="1750.236328"/>
     <use xlink:href="#DejaVuSans-20" x="1813.712891"/>
     <use xlink:href="#DejaVuSans-31" x="1845.5"/>
     <use xlink:href="#DejaVuSans-35" x="1909.123047"/>
     <use xlink:href="#DejaVuSans-b0" x="1972.746094"/>
     <use xlink:href="#DejaVuSans-43" x="2022.746094"/>
     <use xlink:href="#DejaVuSans-20" x="2092.570312"/>
     <use xlink:href="#DejaVuSans-2d" x="2124.357422"/>
     <use xlink:href="#DejaVuSans-20" x="2160.441406"/>
     <use xlink:href="#DejaVuSans-73" x="2192.228516"/>
     <use xlink:href="#DejaVuSans-69" x="2244.328125"/>
     <use xlink:href="#DejaVuSans-67" x="2272.111328"/>
     <use xlink:href="#DejaVuSans-6d" x="2335.587891"/>
     <use xlink:href="#DejaVuSans-61" x="2433"/>
     <use xlink:href="#DejaVuSans-3d" x="2494.279297"/>
     <use xlink:href="#DejaVuSans-30" x="2578.068359"/>
     <use xlink:href="#DejaVuSans-2e" x="2641.691406"/>
     <use xlink:href="#DejaVuSans-30" x="2673.478516"/>
     <use xlink:href="#DejaVuSans-35" x="2737.101562"/>
     <use xlink:href="#DejaVuSans-2a" x="2800.724609"/>
     <use xlink:href="#DejaVuSans-7c" x="2850.724609"/>
     <use xlink:href="#DejaVuSans-5a" x="2884.416016"/>
     <use xlink:href="#DejaVuSans-7c" x="2952.921875"/>
    </g>
   </g>
   <g id="legend_1">
    <g id="patch_7">
     <path d="M 402.5 376.48 
L 507.2 376.48 
Q 510.4 376.48 510.4 373.28 
L 510.4 331.11 
Q 510.4 327.91 507.2 327.91 
L 402.5 327.91 
Q 399.3 327.91 399.3 331.11 
L 399.3 373.28 
Q 399.3 376.48 402.5 376.48 
z
" style="fill: #ffffff; opacity: 0.8; stroke: #000000; stroke-linejoin: miter"/>
    </g>
    <g id="PathCollection_3">
     <g>
      <use xlink:href="#m3286aa023e" x="420.1" y="340.6675" style="fill: #3b4cc0; stroke: #3b4cc0"/>
     </g>
    </g>
    <g id="text_18">
     <!-- orig -->
     <g transform="translate(448.9 344.8675) scale(0.16 -0.16)">
      <use xlink:href="#DejaVuSans-6f"/>
      <use xlink:href="#DejaVuSans-72" x="61.181641"/>
      <use xlink:href="#DejaVuSans-69" x="102.294922"/>
      <use xlink:href="#DejaVuSans-67" x="130.078125"/>
     </g>
    </g>
    <g id="PathCollection_4">
     <g>
      <use xlink:href="#m8c2fef3aae" x="420.1" y="364.1525" style="fill: #3b4cc0; stroke: #3b4cc0; stroke-width: 1.5"/>
     </g>
    </g>
    <g id="text_19">
     <!-- degrad -->
     <g transform="translate(448.9 368.3525) scale(0.16 -0.16)">
      <defs>
       <path id="DejaVuSans-64" d="M 2906 2969 
L 2906 4863 
L 3481 4863 
L 3481 0 
L 2906 0 
L 2906 525 
Q 2725 213 2448 61 
Q 2172 -91 1784 -91 
Q 1150 -91 751 415 
Q 353 922 353 1747 
Q 353 2572 751 3078 
Q 1150 3584 1784 3584 
Q 2172 3584 2448 3432 
Q 2725 3281 2906 2969 
z
M 947 1747 
Q 947 1113 1208 752 
Q 1469 391 1925 391 
Q 2381 391 2643 752 
Q 2906 1113 2906 1747 
Q 2906 2381 2643 2742 
Q 2381 3103 1925 3103 
Q 1469 3103 1208 2742 
Q 947 2381 947 1747 
z
" transform="scale(0.015625)"/>
      </defs>
      <use xlink:href="#DejaVuSans-64"/>
      <use xlink:href="#DejaVuSans-65" x="63.476562"/>
      <use xlink:href="#DejaVuSans-67" x="125"/>
      <use xlink:href="#DejaVuSans-72" x="188.476562"/>
      <use xlink:href="#DejaVuSans-61" x="229.589844"/>
      <use xlink:href="#DejaVuSans-64" x="290.869141"/>
     </g>
    </g>
   </g>
  </g>
 </g>
 <defs>
  <clipPath id="p3cac6a9693">
   <rect x="72" y="51.84" width="446.4" height="332.64"/>
  </clipPath>
 </defs>
</svg>
